# File created by Blade
# Date/Time:  Wed Jan 21 17:34:04 2015
# Frame Rate: 120.000 fps
#------------------------------------------------------
:FULLY-SPECIFIED
:DEGREES
1576
root 21.094250 35.265998 -22.926406 -179.589854 -1.498521 -179.711493
Spine -11.796865 -0.193108 -0.028055
Head 10.953144 -0.187062 0.404711
LeftShoulder -15.417615 -33.059497 23.553173
LeftArm 1.823585 3.584162 -4.084018
LeftForeArm 12.911943 -0.000000 -2.674160
LeftHand -9.585757 -0.000000 -3.460477
LeftHandThumb1 -26.253704 0.000000 33.147579
RightShoulder -13.918879 -1.383907 -11.375717
RightArm -0.732947 41.113513 7.499892
RightForeArm -36.329754 0.000000 6.601447
RightHand -8.685843 -0.000000 6.032707
RightHandThumb1 -24.326973 -0.000000 -32.862282
LeftUpLeg 10.840804 10.918738 3.397697
LeftLeg -6.077087 -0.000000 0.000000
LeftFoot -20.337522 23.905677 -11.704506
LeftToeBase 24.861408 -0.000000 -0.000000
RightUpLeg 10.272305 -8.531027 -3.815346
RightLeg -3.237357 -0.000000 0.000000
RightFoot -22.439133 -22.142656 16.243406
RightToeBase 25.611684 -0.000000 -0.000000
1577
root 21.095212 35.263065 -22.936630 -179.589619 -1.461700 -179.687154
Spine -11.777567 -0.122572 0.019109
Head 10.935874 -0.117900 0.327937
LeftShoulder -15.428555 -33.017152 23.545166
LeftArm 1.825577 3.406349 -4.102652
LeftForeArm 12.777676 -0.000000 -2.670479
LeftHand -9.675710 0.000000 -3.354562
LeftHandThumb1 -26.253704 0.000000 33.147579
RightShoulder -13.952056 -1.382484 -11.364740
RightArm -0.657669 41.066716 7.589317
RightForeArm -36.328083 -0.000000 6.547755
RightHand -8.676359 -0.000000 6.195253
RightHandThumb1 -24.326973 -0.000000 -32.862282
LeftUpLeg 10.876396 10.902420 3.422063
LeftLeg -6.098942 -0.000000 0.000000
LeftFoot -20.379522 23.954530 -11.699200
LeftToeBase 24.893279 -0.000000 -0.000000
RightUpLeg 10.277217 -8.505044 -3.792609
RightLeg -3.227744 -0.000000 0.000000
RightFoot -22.453148 -22.131384 16.252026
RightToeBase 25.724909 -0.000000 -0.000000
1578
root 21.097387 35.260124 -22.947090 -179.591978 -1.436335 -179.665647
Spine -11.754321 -0.060515 0.042121
Head 10.916032 -0.071059 0.296073
LeftShoulder -15.423058 -32.986224 23.557954
LeftArm 1.814738 3.323938 -4.121384
LeftForeArm 12.634456 -0.000000 -2.630279
LeftHand -9.606141 -0.000000 -3.448365
LeftHandThumb1 -26.253704 0.000000 33.147579
RightShoulder -13.970413 -1.376214 -11.320460
RightArm -0.619514 41.052021 7.637348
RightForeArm -36.238112 -0.000000 6.515814
RightHand -8.760801 0.000000 6.286691
RightHandThumb1 -24.326973 -0.000000 -32.862282
LeftUpLeg 10.914668 10.858242 3.443790
LeftLeg -6.124560 -0.000000 0.000000
LeftFoot -20.413218 24.011557 -11.712195
LeftToeBase 24.916939 -0.000000 -0.000000
RightUpLeg 10.281348 -8.498166 -3.773642
RightLeg -3.205398 -0.000000 0.000000
RightFoot -22.493325 -22.123614 16.293598
RightToeBase 25.757539 -0.000000 -0.000000
1579
root 21.097745 35.257885 -22.958209 -179.595714 -1.382731 -179.648281
Spine -11.733663 0.027487 0.080797
Head 10.919401 0.067759 0.246672
LeftShoulder -15.426604 -32.942298 23.540229
LeftArm 1.842696 3.311061 -4.130985
LeftForeArm 12.456429 -0.000000 -2.613851
LeftHand -9.618249 0.000000 -3.418725
LeftHandThumb1 -26.253704 0.000000 33.147579
RightShoulder -13.961579 -1.350224 -11.279082
RightArm -0.629522 41.065838 7.620129
RightForeArm -36.188317 -0.000000 6.528292
RightHand -8.820347 -0.000000 6.256317
RightHandThumb1 -24.326973 -0.000000 -32.862282
LeftUpLeg 10.960467 10.851894 3.459679
LeftLeg -6.150938 -0.000000 0.000000
LeftFoot -20.450175 24.054920 -11.748369
LeftToeBase 24.895400 -0.000000 -0.000000
RightUpLeg 10.284627 -8.460160 -3.759472
RightLeg -3.186556 -0.000000 0.000000
RightFoot -22.525883 -22.069665 16.311164
RightToeBase 25.684523 -0.000000 -0.000000
1580
root 21.098717 35.254024 -22.968251 -179.603551 -1.347883 -179.630624
Spine -11.694247 0.096972 0.109518
Head 10.876010 0.152845 0.235014
LeftShoulder -15.468662 -32.744744 23.495427
LeftArm 2.005115 3.192519 -4.146848
LeftForeArm 12.280270 -0.000000 -2.654820
LeftHand -9.638151 -0.000000 -3.420344
LeftHandThumb1 -26.253704 0.000000 33.147579
RightShoulder -13.962434 -1.299443 -11.260233
RightArm -0.646224 40.991181 7.646481
RightForeArm -36.066822 0.000000 6.585673
RightHand -8.834876 -0.000000 6.300083
RightHandThumb1 -24.326973 -0.000000 -32.862282
LeftUpLeg 10.995797 10.797553 3.480897
LeftLeg -6.151845 -0.000000 0.000000
LeftFoot -20.505064 24.092345 -11.749107
LeftToeBase 24.923185 -0.000000 -0.000000
RightUpLeg 10.292201 -8.460151 -3.750145
RightLeg -3.160642 -0.000000 0.000000
RightFoot -22.547816 -22.020494 16.293861
RightToeBase 25.761999 -0.000000 -0.000000
